<svg width="1100" height="1550" viewBox="0 0 680 960" xmlns="http://www.w3.org/2000/svg">
  <defs>
    <style>
      text { font-family: 'Segoe UI', system-ui, sans-serif; }
      .mono { font-family: 'Courier New', monospace; }
    </style>

    <!-- Python -->
    <symbol id="logo-python" viewBox="0 0 24 24">
      <path fill="#3572A5" d="M11.914 0C5.82 0 6.2 2.656 6.2 2.656l.007 2.752h5.814v.826H3.89S0 5.789 0 11.969c0 6.18 3.403 5.96 3.403 5.96h2.03v-2.867s-.109-3.402 3.345-3.402h5.762s3.236.052 3.236-3.127V3.23S18.28 0 11.914 0zm-3.2 1.867a1.042 1.042 0 1 1 0 2.085 1.042 1.042 0 0 1 0-2.085z"/>
      <path fill="#FFC331" d="M12.086 23.6c6.096 0 5.716-2.657 5.716-2.657l-.007-2.752h-5.814v-.825h8.131S24 17.811 24 11.631c0-6.18-3.403-5.96-3.403-5.96h-2.03v2.867s.109 3.402-3.345 3.402H9.46s-3.236-.052-3.236 3.127V17.37S5.72 23.6 12.086 23.6zm3.2-1.867a1.042 1.042 0 1 1 0-2.085 1.042 1.042 0 0 1 0 2.085z"/>
    </symbol>

    <!-- PyTorch -->
    <symbol id="logo-pytorch" viewBox="0 0 24 24">
      <path fill="#EE4C2C" d="M12.005 0L4.952 7.053a9.865 9.865 0 0 0 0 14.01 9.864 9.864 0 0 0 14.009 0 9.865 9.865 0 0 0 0-14.01L16.94 5.08l-.002.002a3.654 3.654 0 0 1 0 5.17 3.654 3.654 0 0 1-5.171 0 3.654 3.654 0 0 1 0-5.17zm3.97 4.6a1.43 1.43 0 1 0 0-2.86 1.43 1.43 0 0 0 0 2.86z"/>
    </symbol>

    <!-- Docker -->
    <symbol id="logo-docker" viewBox="0 0 24 24">
      <path fill="#2496ED" d="M13.983 11.078h2.119a.186.186 0 0 0 .186-.185V9.006a.186.186 0 0 0-.186-.186h-2.119a.185.185 0 0 0-.185.185v1.888c0 .102.083.185.185.185m-2.954-5.43h2.118a.186.186 0 0 0 .186-.186V3.574a.186.186 0 0 0-.186-.185h-2.118a.185.185 0 0 0-.185.185v1.888c0 .102.082.185.185.185m0 2.716h2.118a.187.187 0 0 0 .186-.186V6.29a.186.186 0 0 0-.186-.185h-2.118a.185.185 0 0 0-.185.185v1.887c0 .102.082.186.185.186m-2.93 0h2.12a.186.186 0 0 0 .184-.186V6.29a.185.185 0 0 0-.185-.185H8.1a.185.185 0 0 0-.185.185v1.887c0 .102.083.186.185.186m-2.964 0h2.119a.186.186 0 0 0 .185-.186V6.29a.185.185 0 0 0-.185-.185H5.136a.186.186 0 0 0-.186.185v1.887c0 .102.084.186.186.186m5.893 2.715h2.118a.186.186 0 0 0 .186-.185V9.006a.186.186 0 0 0-.186-.186h-2.118a.185.185 0 0 0-.185.185v1.888c0 .102.082.185.185.185m-2.93 0h2.12a.185.185 0 0 0 .184-.185V9.006a.185.185 0 0 0-.184-.186h-2.12a.185.185 0 0 0-.184.185v1.888c0 .102.083.185.185.185m-2.964 0h2.119a.185.185 0 0 0 .185-.185V9.006a.185.185 0 0 0-.184-.186h-2.12a.186.186 0 0 0-.186.186v1.887c0 .102.084.185.186.185m-2.92 0h2.12a.185.185 0 0 0 .184-.185V9.006a.185.185 0 0 0-.184-.186h-2.12a.185.185 0 0 0-.185.185v1.888c0 .102.083.185.185.185M23.763 9.89c-.065-.051-.672-.51-1.954-.51-.338.001-.676.03-1.01.087-.248-1.7-1.653-2.53-1.716-2.566l-.344-.199-.226.327c-.284.438-.49.922-.612 1.43-.23.97-.09 1.882.403 2.661-.595.332-1.55.413-1.744.42H.751a.751.751 0 0 0-.75.75c-.007 1.497.23 2.986.694 4.398.57 1.748 1.416 3.03 2.515 3.808 1.242.9 3.265 1.41 5.554 1.41 1.043.002 2.083-.104 3.106-.312 1.404-.29 2.747-.8 3.985-1.507 1.02-.593 1.94-1.347 2.727-2.236 1.308-1.482 2.085-3.132 2.659-4.603.039.012.08.02.119.028.367.09.743.135 1.12.133.983-.006 1.945-.315 2.76-.89.438-.313.802-.735 1.055-1.225l.15-.29zM3.737 17.752a1.185 1.185 0 0 1-1.185-1.186 1.185 1.185 0 0 1 1.185-1.185 1.185 1.185 0 0 1 1.186 1.185 1.185 1.185 0 0 1-1.186 1.186"/>
    </symbol>

    <!-- AWS -->
    <symbol id="logo-aws" viewBox="0 0 24 24">
      <path fill="#FF9900" d="M6.763 10.036c0 .296.032.535.088.71.064.176.144.368.256.576.04.063.056.127.056.183 0 .08-.048.16-.152.24l-.503.335a.383.383 0 0 1-.208.072c-.08 0-.16-.04-.239-.112a2.47 2.47 0 0 1-.287-.375 6.18 6.18 0 0 1-.248-.471c-.622.734-1.405 1.101-2.347 1.101-.67 0-1.205-.191-1.596-.574-.391-.384-.59-.894-.59-1.533 0-.678.239-1.23.726-1.644.487-.415 1.133-.623 1.955-.623.272 0 .551.024.846.064.296.04.6.104.918.176v-.583c0-.607-.127-1.030-.375-1.277-.255-.248-.686-.367-1.3-.367-.28 0-.568.031-.863.103-.295.072-.583.16-.862.272a2.287 2.287 0 0 1-.28.104.488.488 0 0 1-.127.023c-.112 0-.168-.08-.168-.247v-.391c0-.128.016-.224.056-.28a.597.597 0 0 1 .224-.167c.279-.144.614-.264 1.005-.36a4.84 4.84 0 0 1 1.246-.151c.95 0 1.644.216 2.091.647.439.43.662 1.085.662 1.963v2.586zm-3.24 1.214c.263 0 .534-.048.822-.144.287-.096.543-.271.758-.51.128-.152.224-.32.272-.512.047-.191.08-.423.08-.694v-.335a6.66 6.66 0 0 0-.735-.136 6.02 6.02 0 0 0-.75-.048c-.535 0-.926.104-1.19.32-.263.215-.39.518-.39.917 0 .375.095.655.295.846.191.2.47.296.838.296zm6.41.862c-.144 0-.24-.024-.304-.08-.064-.048-.12-.16-.168-.311L7.586 5.55a1.398 1.398 0 0 1-.072-.32c0-.128.064-.2.191-.2h.783c.151 0 .255.025.31.08.065.048.113.16.16.312l1.342 5.284 1.245-5.284c.04-.16.088-.264.151-.312a.549.549 0 0 1 .32-.08h.638c.152 0 .256.025.32.08.063.048.12.16.151.312l1.261 5.348 1.381-5.348c.048-.16.104-.264.16-.312a.52.52 0 0 1 .311-.08h.743c.127 0 .2.065.2.2 0 .04-.009.08-.017.128a1.137 1.137 0 0 1-.056.2l-1.923 6.17c-.048.16-.104.263-.168.311a.51.51 0 0 1-.303.08h-.687c-.151 0-.255-.024-.32-.08-.063-.056-.119-.16-.15-.32l-1.238-5.148-1.23 5.14c-.04.16-.087.264-.15.32-.065.056-.177.08-.32.08zm10.256.215c-.415 0-.83-.048-1.229-.143-.399-.096-.71-.2-.918-.32-.128-.071-.215-.151-.247-.223a.563.563 0 0 1-.048-.224v-.407c0-.167.064-.247.183-.247.048 0 .096.008.144.024.048.016.12.048.2.08.271.12.566.215.878.279.319.064.63.096.95.096.502 0 .894-.088 1.165-.264a.86.86 0 0 0 .415-.758.778.778 0 0 0-.215-.559c-.144-.151-.415-.287-.807-.415l-1.157-.36c-.583-.183-1.014-.454-1.277-.813a1.902 1.902 0 0 1-.4-1.158c0-.335.073-.63.216-.886.144-.255.335-.479.575-.654.24-.184.51-.32.83-.415.32-.096.655-.136 1.006-.136.175 0 .359.008.535.032.183.024.35.056.518.088.16.04.312.08.455.127.144.048.256.096.336.144a.69.69 0 0 1 .24.2.43.43 0 0 1 .071.263v.375c0 .168-.064.256-.184.256a.83.83 0 0 1-.303-.096 3.652 3.652 0 0 0-1.532-.311c-.455 0-.815.071-1.062.223-.248.152-.375.383-.375.71 0 .224.08.416.24.567.159.152.454.304.877.44l1.134.358c.574.184.99.44 1.237.767.247.327.367.702.367 1.117 0 .343-.072.655-.207.926-.144.272-.336.511-.583.703-.248.2-.543.343-.886.447-.36.111-.743.167-1.166.167z"/>
      <path fill="#FF9900" d="M19.395 15.446c-2.39 1.766-5.862 2.703-8.848 2.703-4.183 0-7.95-1.549-10.79-4.12-.224-.2-.024-.472.247-.319 3.073 1.79 6.87 2.86 10.79 2.86 2.646 0 5.557-.55 8.232-1.686.399-.175.743.263.369.562z"/>
      <path fill="#FF9900" d="M20.353 14.346c-.303-.39-2.006-.183-2.77-.095-.232.03-.27-.175-.06-.32 1.357-.955 3.583-.678 3.846-.359.262.32-.072 2.553-1.342 3.617-.196.167-.383.08-.295-.136.286-.718.927-2.31.621-2.707z"/>
    </symbol>

    <!-- Flask -->
    <symbol id="logo-flask" viewBox="0 0 24 24">
      <path fill="#8b949e" d="M14.68.755a.498.498 0 0 0-.727.32l-1.17 4.36a7.912 7.912 0 0 0-3.15 1.136L5.8 4.301a.5.5 0 0 0-.603.1L3.25 6.34a.5.5 0 0 0-.038.612l2.378 3.162A7.863 7.863 0 0 0 5.1 12c0 .658.085 1.296.24 1.907L3.05 16.78a.5.5 0 0 0 .05.64l1.94 1.93a.5.5 0 0 0 .61.068l3.36-2.047A7.93 7.93 0 0 0 12 18c1.088 0 2.12-.22 3.063-.614l3.257 1.98a.5.5 0 0 0 .61-.067l1.94-1.93a.499.499 0 0 0 .052-.639l-2.19-2.913c.19-.644.29-1.325.29-2.032 0-1.313-.343-2.545-.944-3.61L20.64 5.65a.5.5 0 0 0-.1-.602l-1.94-1.93a.5.5 0 0 0-.613-.052l-3.308 2.015zM12 6.5a5.5 5.5 0 1 1 0 11 5.5 5.5 0 0 1 0-11z"/>
    </symbol>

    <!-- React -->
    <symbol id="logo-react" viewBox="0 0 24 24">
      <circle cx="12" cy="12" r="2.139" fill="#61DAFB"/>
      <path fill="none" stroke="#61DAFB" stroke-width="1" d="M12 5.5c3.866 0 7.404.972 9.619 2.5C23.834 9.528 25 11.13 25 12s-1.166 2.472-3.381 4C19.404 17.528 15.866 18.5 12 18.5s-7.404-.972-9.619-2.5C.166 14.472-1 12.87-1 12s1.166-2.472 3.381-4C5.596 6.472 8.134 5.5 12 5.5z"/>
      <path fill="none" stroke="#61DAFB" stroke-width="1" d="M8.295 8.75C10.203 5.384 12.577 3.177 14.5 2.75c1.923-.427 3.577.623 4.5 3.159.923 2.536.757 6.12-1.151 9.486-1.908 3.366-4.282 5.573-6.205 6-1.923.427-3.577-.623-4.5-3.159-.923-2.536-.757-6.12 1.151-9.486z"/>
      <path fill="none" stroke="#61DAFB" stroke-width="1" d="M8.295 15.25C6.387 11.884 5.748 8.302 6.671 5.766c.923-2.536 2.869-3.586 4.792-3.159 1.923.427 4.005 2.634 5.913 6C19.284 12.073 19.45 15.657 18.527 18.193c-.923 2.536-2.869 3.586-4.792 3.159-1.923-.427-4.005-2.634-5.44-6.102z"/>
    </symbol>

    <!-- Git -->
    <symbol id="logo-git" viewBox="0 0 24 24">
      <path fill="#F05032" d="M23.546 10.93L13.067.452a1.55 1.55 0 0 0-2.188 0L8.708 2.627l2.76 2.76a1.838 1.838 0 0 1 2.327 2.341l2.658 2.66a1.838 1.838 0 1 1-1.1 1.059L12.93 9.04v6.82a1.838 1.838 0 1 1-1.51-.076V8.99a1.838 1.838 0 0 1-.998-2.416L7.686 3.816l-7.232 7.23a1.55 1.55 0 0 0 0 2.188l10.48 10.48a1.55 1.55 0 0 0 2.188 0l10.424-10.424a1.55 1.55 0 0 0 0-2.188"/>
    </symbol>

    <!-- Postgres -->
    <symbol id="logo-postgres" viewBox="0 0 24 24">
      <path fill="#336791" d="M17.128 0a10.134 10.134 0 0 0-2.755.403l-.063.02A10.922 10.922 0 0 0 12.6.258C11.422.238 10.41.524 9.594 1.1a11.6 11.6 0 0 0-.949-.31C7.662.44 6.313.35 5.17.988 3.769 1.76 3.027 3.275 2.889 5.392c-.076 1.16.026 2.502.307 3.999.287 1.524.74 2.797 1.346 3.784a5.878 5.878 0 0 0 1.28 1.575 2.995 2.995 0 0 0 1.714.689 2.98 2.98 0 0 0 1.316-.415 3.75 3.75 0 0 0 .508.198c.386.124.784.2 1.181.224.01.152.024.302.044.452.056.408.154.813.3 1.186.18.452.454.859.826 1.143.373.285.83.407 1.316.406.327 0 .684-.076 1.064-.247.07.375.134.73.197 1.047.173.87.333 1.558.504 2.108.312 1.011.679 1.755 1.137 2.197a1.7 1.7 0 0 0 1.21.496c.252 0 .51-.063.757-.194.528-.281.97-.784 1.307-1.463.45-.9.733-2.101.88-3.691.027-.295.05-.6.07-.914a4.78 4.78 0 0 0 1.008-.362c.82-.422 1.467-1.1 1.853-2.008.4-.94.512-2.07.33-3.357a6.928 6.928 0 0 0-.547-1.907c.167-.394.278-.812.342-1.254.152-1.051.047-2.05-.09-2.827C21.52 2.67 20.47 1.15 18.944.41A4.858 4.858 0 0 0 17.128 0z"/>
    </symbol>

    <!-- Redis -->
    <symbol id="logo-redis" viewBox="0 0 24 24">
      <path fill="#D82C20" d="M10.5 3.375L0 8.625l10.5 5.25 10.5-5.25L10.5 3.375zM0 8.625v5.25l10.5 5.25V13.875L0 8.625zm21 0L10.5 13.875v5.25L21 13.875V8.625z"/>
    </symbol>

    <!-- Flutter -->
    <symbol id="logo-flutter" viewBox="0 0 24 24">
      <path fill="#54C5F8" d="M14.314 0L2.3 12 6 15.7 21.706 0h-7.392z"/>
      <path fill="#54C5F8" d="M14.314 11.072l-4.4 4.35 4.4 4.437 7.392-4.394-7.392-4.393z"/>
      <path fill="#01579B" d="M9.914 15.422l4.4-4.35-4.4-4.35L5.9 10.1l4.014 5.322z"/>
      <path fill="#29B6F6" d="M9.914 15.422l4.4 4.437-4.4 4.141-4.014-4.336 4.014-4.242z"/>
    </symbol>

    <!-- Radial glow filters — subtle -->
    <filter id="glow-blue" x="-40%" y="-40%" width="180%" height="180%">
      <feGaussianBlur stdDeviation="1.2" result="blur"/>
      <feMerge><feMergeNode in="blur"/><feMergeNode in="SourceGraphic"/></feMerge>
    </filter>
    <filter id="glow-purple" x="-40%" y="-40%" width="180%" height="180%">
      <feGaussianBlur stdDeviation="1" result="blur"/>
      <feMerge><feMergeNode in="blur"/><feMergeNode in="SourceGraphic"/></feMerge>
    </filter>
    <filter id="glow-green" x="-40%" y="-40%" width="180%" height="180%">
      <feGaussianBlur stdDeviation="1" result="blur"/>
      <feMerge><feMergeNode in="blur"/><feMergeNode in="SourceGraphic"/></feMerge>
    </filter>
    <filter id="softglow" x="-60%" y="-60%" width="220%" height="220%">
      <feGaussianBlur stdDeviation="2.5" result="blur"/>
      <feMerge><feMergeNode in="blur"/><feMergeNode in="SourceGraphic"/></feMerge>
    </filter>

    <!-- Radial gradients for planet bodies -->
    <radialGradient id="planet-python" cx="35%" cy="35%">
      <stop offset="0%" stop-color="#6eb4ff"/>
      <stop offset="100%" stop-color="#388bfd"/>
    </radialGradient>
    <radialGradient id="planet-ml" cx="35%" cy="35%">
      <stop offset="0%" stop-color="#c4a8ff"/>
      <stop offset="100%" stop-color="#a78bfa"/>
    </radialGradient>
    <radialGradient id="planet-backend" cx="35%" cy="35%">
      <stop offset="0%" stop-color="#86efac"/>
      <stop offset="100%" stop-color="#4ade80"/>
    </radialGradient>
    <radialGradient id="planet-datasci" cx="35%" cy="35%">
      <stop offset="0%" stop-color="#fde68a"/>
      <stop offset="100%" stop-color="#d29922"/>
    </radialGradient>
    <radialGradient id="planet-llm" cx="35%" cy="35%">
      <stop offset="0%" stop-color="#6ee7b7"/>
      <stop offset="100%" stop-color="#1d9e75"/>
    </radialGradient>
    <radialGradient id="planet-geo" cx="35%" cy="35%">
      <stop offset="0%" stop-color="#93c5fd"/>
      <stop offset="100%" stop-color="#58a6ff"/>
    </radialGradient>
    <radialGradient id="planet-front" cx="35%" cy="35%">
      <stop offset="0%" stop-color="#fed7aa"/>
      <stop offset="100%" stop-color="#f0883e"/>
    </radialGradient>
    <radialGradient id="core-grad" cx="40%" cy="35%">
      <stop offset="0%" stop-color="#ffffff" stop-opacity="0.9"/>
      <stop offset="60%" stop-color="#388bfd"/>
      <stop offset="100%" stop-color="#1a4fa0"/>
    </radialGradient>

    <!-- Arc dash pattern for orbit rings -->
    <marker id="arrow" markerWidth="4" markerHeight="4" refX="2" refY="2" orient="auto">
      <path d="M0,0 L4,2 L0,4 Z" fill="#30363d"/>
    </marker>
  </defs>

  <!-- ═══════════ BACKGROUND ═══════════ -->
  <rect width="680" height="720" rx="14" fill="#0d1117"/>
  <rect x="40" y="0" width="48" height="2.5" rx="1.5" fill="#388bfd"/>

  <!-- Subtle star field -->
  <circle cx="80" cy="160" r="0.8" fill="#ffffff" opacity="0.15"/>
  <circle cx="155" cy="200" r="0.6" fill="#ffffff" opacity="0.12"/>
  <circle cx="620" cy="130" r="1" fill="#ffffff" opacity="0.18"/>
  <circle cx="580" cy="300" r="0.7" fill="#ffffff" opacity="0.1"/>
  <circle cx="50" cy="310" r="0.9" fill="#ffffff" opacity="0.13"/>
  <circle cx="630" cy="250" r="0.5" fill="#ffffff" opacity="0.1"/>
  <circle cx="100" cy="350" r="0.6" fill="#ffffff" opacity="0.08"/>
  <circle cx="660" cy="180" r="0.8" fill="#ffffff" opacity="0.14"/>

  <!-- ═══════════ HERO ═══════════ -->
  <text x="40" y="52" font-size="30" font-weight="800" fill="#e6edf3" letter-spacing="-0.5">Aditya Hakani</text>
  <rect x="272" y="28" width="2" height="26" rx="1" fill="#388bfd">
    <animate attributeName="opacity" values="1;0;1" dur="1.1s" repeatCount="indefinite"/>
  </rect>
  <text x="40" y="74" class="mono" font-size="11" fill="#8b949e">Python Dev · AI/ML Engineer · Backend Dev · Data Scientist</text>

  <!-- LinkedIn button -->
  <a href="https://www.linkedin.com/in/adityahakani" target="_blank" style="cursor:pointer">
    <rect x="40" y="82" width="92" height="22" rx="5" fill="#0A66C2" opacity="0.12" stroke="#0A66C2" stroke-width="0.8"/>
    <text x="56" y="97" class="mono" font-size="8.5" fill="#0A66C2" font-weight="600">in  LinkedIn ↗</text>
  </a>
  <!-- Mail button -->
  <a href="mailto:adityahakani@gmail.com" target="_blank" style="cursor:pointer">
    <rect x="140" y="82" width="78" height="22" rx="5" fill="#388bfd" opacity="0.1" stroke="#388bfd" stroke-width="0.8"/>
    <text x="156" y="97" class="mono" font-size="8.5" fill="#388bfd" font-weight="600">✉  Email ↗</text>
  </a>

  <line x1="40" y1="112" x2="640" y2="112" stroke="#21262d" stroke-width="0.5"/>

  <!-- ═══════════ INTEREST CONSTELLATION ═══════════ -->
  <text x="40" y="136" class="mono" font-size="9" fill="#3d444d" letter-spacing="2.5">INTERESTS &amp; DEPTH</text>

  <!-- orbit rings — only 3 now -->
  <ellipse cx="340" cy="242" rx="58"  ry="30" fill="none" stroke="#1c2128" stroke-width="0.7" stroke-dasharray="3,5" opacity="0.55"/>
  <ellipse cx="340" cy="242" rx="108" ry="54" fill="none" stroke="#1c2128" stroke-width="0.6" stroke-dasharray="3,6" opacity="0.38"/>
  <ellipse cx="340" cy="242" rx="162" ry="80" fill="none" stroke="#1c2128" stroke-width="0.5" stroke-dasharray="3,9" opacity="0.22"/>

  <!-- ── SHOOTING STAR — streaks diagonally once in a while ── -->
  <line x1="100" y1="155" x2="580" y2="330" stroke="url(#shootgrad)" stroke-width="1" stroke-linecap="round" opacity="0">
    <animate attributeName="opacity" values="0;0;0;0;0;0;0.7;0.4;0" dur="8s" repeatCount="indefinite"/>
    <animate attributeName="x1" values="60;60;60;60;60;60;60;580;580" dur="8s" repeatCount="indefinite"/>
    <animate attributeName="y1" values="150;150;150;150;150;150;150;310;310" dur="8s" repeatCount="indefinite"/>
    <animate attributeName="x2" values="160;160;160;160;160;160;160;640;640" dur="8s" repeatCount="indefinite"/>
    <animate attributeName="y2" values="168;168;168;168;168;168;168;328;328" dur="8s" repeatCount="indefinite"/>
  </line>

  <!-- ── ASTEROID BELT — tiny dots drifting slowly ── -->
  <!-- these sit roughly between ring 2 and ring 3, scattered -->
  <circle cx="410" cy="162" r="1.5" fill="#3d444d" opacity="0.5">
    <animateTransform attributeName="transform" type="translate" values="0,0;1,-2;0,0;-1,2;0,0" dur="6s" repeatCount="indefinite" additive="sum"/>
  </circle>
  <circle cx="450" cy="220" r="1" fill="#3d444d" opacity="0.4">
    <animateTransform attributeName="transform" type="translate" values="0,0;-2,1;0,0;2,-1;0,0" dur="9s" repeatCount="indefinite" additive="sum"/>
  </circle>
  <circle cx="270" cy="174" r="1.2" fill="#3d444d" opacity="0.45">
    <animateTransform attributeName="transform" type="translate" values="0,0;1,2;0,0;-1,-2;0,0" dur="7.5s" repeatCount="indefinite" additive="sum"/>
  </circle>
  <circle cx="390" cy="312" r="1.5" fill="#3d444d" opacity="0.4">
    <animateTransform attributeName="transform" type="translate" values="0,0;-1,-2;0,0;1,2;0,0" dur="11s" repeatCount="indefinite" additive="sum"/>
  </circle>
  <circle cx="300" cy="310" r="1" fill="#3d444d" opacity="0.35">
    <animateTransform attributeName="transform" type="translate" values="0,0;2,1;0,0;-2,-1;0,0" dur="8s" repeatCount="indefinite" additive="sum"/>
  </circle>
  <circle cx="480" cy="270" r="1.2" fill="#3d444d" opacity="0.38">
    <animateTransform attributeName="transform" type="translate" values="0,0;-1,2;0,0;1,-2;0,0" dur="13s" repeatCount="indefinite" additive="sum"/>
  </circle>
  <circle cx="220" cy="270" r="1" fill="#3d444d" opacity="0.3">
    <animateTransform attributeName="transform" type="translate" values="0,0;1,-1;0,0;-1,1;0,0" dur="10s" repeatCount="indefinite" additive="sum"/>
  </circle>

  <!-- ── CORE: "A" ── -->
  <circle cx="340" cy="242" r="20" fill="url(#core-grad)" filter="url(#softglow)" opacity="0.88"/>
  <circle cx="340" cy="242" r="20" fill="none" stroke="#388bfd" stroke-width="0.8" opacity="0.4"/>
  <text x="340" y="248" font-size="13" font-weight="800" fill="#ffffff" text-anchor="middle" opacity="0.95">A</text>

  <!-- ── PLANET 1: Python · top-right · ring 3 ── -->
  <g>
    <circle cx="476" cy="185" r="17" fill="url(#planet-python)" filter="url(#glow-blue)" opacity="0.78"/>
    <circle cx="476" cy="185" r="17" fill="none" stroke="#388bfd" stroke-width="0.6" opacity="0.22"/>
    <text x="476" y="190" font-size="11" text-anchor="middle">🐍</text>
    <text x="476" y="165" class="mono" font-size="8" fill="#388bfd" text-anchor="middle">Python</text>
    <animateTransform attributeName="transform" type="translate" values="0,0; 0,-5; 0,0; 0,3; 0,0" dur="4.2s" repeatCount="indefinite" additive="sum"/>
  </g>

  <!-- ── PLANET 2: ML/AI · left · ring 2 ── -->
  <g>
    <circle cx="240" cy="228" r="15" fill="url(#planet-ml)" filter="url(#glow-purple)" opacity="0.76"/>
    <circle cx="240" cy="228" r="15" fill="none" stroke="#a78bfa" stroke-width="0.6" opacity="0.22"/>
    <text x="240" y="233" font-size="11" text-anchor="middle">🧠</text>
    <text x="240" y="210" class="mono" font-size="8" fill="#a78bfa" text-anchor="middle">ML / AI</text>
    <animateTransform attributeName="transform" type="translate" values="0,0; 0,4; 0,0; 0,-6; 0,0" dur="5.7s" repeatCount="indefinite" additive="sum"/>
  </g>

  <!-- ── PLANET 3: Backend · top · ring 1 ── -->
  <g>
    <circle cx="340" cy="208" r="13" fill="url(#planet-backend)" filter="url(#glow-green)" opacity="0.76"/>
    <circle cx="340" cy="208" r="13" fill="none" stroke="#4ade80" stroke-width="0.6" opacity="0.22"/>
    <text x="340" y="213" font-size="10" text-anchor="middle">⚙️</text>
    <text x="340" y="191" class="mono" font-size="8" fill="#4ade80" text-anchor="middle">Backend</text>
    <animateTransform attributeName="transform" type="translate" values="0,0; 0,-4; 0,0; 0,5; 0,0" dur="3.5s" repeatCount="indefinite" additive="sum"/>
  </g>

  <!-- ── PLANET 4: Data Sci · bottom-right · ring 3 ── -->
  <g>
    <circle cx="460" cy="296" r="13" fill="url(#planet-datasci)" opacity="0.74"/>
    <circle cx="460" cy="296" r="13" fill="none" stroke="#d29922" stroke-width="0.6" opacity="0.22"/>
    <text x="460" y="301" font-size="10" text-anchor="middle">📊</text>
    <text x="460" y="316" class="mono" font-size="8" fill="#d29922" text-anchor="middle">Data Sci</text>
    <animateTransform attributeName="transform" type="translate" values="0,0; 0,5; 0,0; 0,-4; 0,0" dur="6.3s" repeatCount="indefinite" additive="sum"/>
  </g>

  <!-- ── PLANET 5: LLMs/RAG · bottom-left · ring 2 ── -->
  <g>
    <circle cx="222" cy="288" r="12" fill="url(#planet-llm)" opacity="0.74"/>
    <circle cx="222" cy="288" r="12" fill="none" stroke="#1d9e75" stroke-width="0.6" opacity="0.28">
      <animate attributeName="stroke-opacity" values="0.28;0.6;0.28" dur="2s" repeatCount="indefinite"/>
    </circle>
    <text x="222" y="293" font-size="10" text-anchor="middle">⚡</text>
    <text x="222" y="308" class="mono" font-size="8" fill="#1d9e75" text-anchor="middle">LLMs/RAG</text>
    <animateTransform attributeName="transform" type="translate" values="0,0; 0,-5; 0,0; 0,4; 0,0" dur="5s" repeatCount="indefinite" additive="sum"/>
  </g>

  <line x1="40" y1="352" x2="640" y2="352" stroke="#21262d" stroke-width="0.5"/>

  <!-- ═══════════ TECH STACK ═══════════ -->
  <text x="40" y="378" class="mono" font-size="9" fill="#3d444d" letter-spacing="2.5">TECH STACK</text>

  <!-- ROW: Languages -->
  <text x="40" y="402" class="mono" font-size="8.5" fill="#3d444d">LANG</text>

  <!-- Python -->
  <rect x="86" y="384" width="76" height="30" rx="5" fill="#161b22" stroke="#30363d" stroke-width="0.5"/>
  <use href="#logo-python" x="92" y="389" width="18" height="18"/>
  <text x="148" y="403" class="mono" font-size="8.5" fill="#8b949e" text-anchor="end">Python</text>

  <!-- C++ -->
  <rect x="170" y="384" width="52" height="30" rx="5" fill="#161b22" stroke="#30363d" stroke-width="0.5"/>
  <text x="175" y="403" class="mono" font-size="14" fill="#00599C">C++</text>

  <!-- Java -->
  <rect x="230" y="384" width="50" height="30" rx="5" fill="#161b22" stroke="#30363d" stroke-width="0.5"/>
  <text x="235" y="403" class="mono" font-size="13" fill="#f89820">☕</text>
  <text x="256" y="403" class="mono" font-size="8" fill="#8b949e" text-anchor="end">Java</text>

  <!-- JS -->
  <rect x="288" y="384" width="42" height="30" rx="5" fill="#161b22" stroke="#30363d" stroke-width="0.5"/>
  <rect x="293" y="389" width="18" height="18" rx="2" fill="#F7DF1E"/>
  <text x="293" y="403" class="mono" font-size="8" fill="#000" font-weight="700">JS</text>

  <!-- Dart -->
  <rect x="338" y="384" width="46" height="30" rx="5" fill="#161b22" stroke="#30363d" stroke-width="0.5"/>
  <text x="343" y="403" class="mono" font-size="13" fill="#00B4AB">◆</text>
  <text x="378" y="403" class="mono" font-size="8" fill="#8b949e" text-anchor="end">Dart</text>

  <!-- ROW: AI / ML -->
  <text x="40" y="436" class="mono" font-size="8.5" fill="#3d444d">AI/ML</text>

  <!-- PyTorch -->
  <rect x="86" y="418" width="76" height="30" rx="5" fill="#161b22" stroke="#30363d" stroke-width="0.5"/>
  <use href="#logo-pytorch" x="92" y="423" width="18" height="18"/>
  <text x="158" y="437" class="mono" font-size="8.5" fill="#EE4C2C" text-anchor="end">PyTorch</text>

  <!-- sklearn -->
  <rect x="170" y="418" width="64" height="30" rx="5" fill="#161b22" stroke="#30363d" stroke-width="0.5"/>
  <text x="175" y="438" class="mono" font-size="8.5" fill="#f89406">sklearn</text>

  <!-- HuggingFace -->
  <rect x="242" y="418" width="96" height="30" rx="5" fill="#161b22" stroke="#30363d" stroke-width="0.5"/>
  <text x="248" y="438" font-size="14">🤗</text>
  <text x="268" y="438" class="mono" font-size="8" fill="#8b949e">HuggingFace</text>

  <!-- LangChain -->
  <rect x="346" y="418" width="82" height="30" rx="5" fill="#161b22" stroke="#30363d" stroke-width="0.5"/>
  <text x="351" y="438" class="mono" font-size="8.5" fill="#1C3C3C">⛓ LangChain</text>

  <!-- OpenCV -->
  <rect x="436" y="418" width="72" height="30" rx="5" fill="#161b22" stroke="#30363d" stroke-width="0.5"/>
  <text x="441" y="438" class="mono" font-size="8.5" fill="#5C3EE8">👁 OpenCV</text>

  <!-- FAISS -->
  <rect x="516" y="418" width="50" height="30" rx="5" fill="#161b22" stroke="#30363d" stroke-width="0.5"/>
  <text x="521" y="438" class="mono" font-size="8.5" fill="#8b949e">FAISS</text>

  <!-- ROW: Backend -->
  <text x="40" y="470" class="mono" font-size="8.5" fill="#3d444d">BACK</text>

  <!-- Flask -->
  <rect x="86" y="452" width="54" height="30" rx="5" fill="#161b22" stroke="#30363d" stroke-width="0.5"/>
  <use href="#logo-flask" x="92" y="457" width="16" height="16"/>
  <text x="136" y="471" class="mono" font-size="8.5" fill="#8b949e" text-anchor="end">Flask</text>

  <!-- Express -->
  <rect x="148" y="452" width="62" height="30" rx="5" fill="#161b22" stroke="#30363d" stroke-width="0.5"/>
  <text x="153" y="472" class="mono" font-size="8.5" fill="#8b949e">Express</text>

  <!-- Docker -->
  <rect x="218" y="452" width="62" height="30" rx="5" fill="#161b22" stroke="#30363d" stroke-width="0.5"/>
  <use href="#logo-docker" x="224" y="457" width="18" height="18"/>
  <text x="276" y="471" class="mono" font-size="8.5" fill="#2496ED" text-anchor="end">Docker</text>

  <!-- Postgres -->
  <rect x="288" y="452" width="76" height="30" rx="5" fill="#161b22" stroke="#30363d" stroke-width="0.5"/>
  <use href="#logo-postgres" x="293" y="456" width="18" height="18"/>
  <text x="360" y="471" class="mono" font-size="8.5" fill="#336791" text-anchor="end">Postgres</text>

  <!-- Redis -->
  <rect x="372" y="452" width="54" height="30" rx="5" fill="#161b22" stroke="#30363d" stroke-width="0.5"/>
  <use href="#logo-redis" x="377" y="457" width="16" height="16"/>
  <text x="422" y="471" class="mono" font-size="8.5" fill="#D82C20" text-anchor="end">Redis</text>

  <!-- AWS -->
  <rect x="434" y="452" width="52" height="30" rx="5" fill="#161b22" stroke="#30363d" stroke-width="0.5"/>
  <use href="#logo-aws" x="438" y="456" width="20" height="20"/>
  <text x="482" y="471" class="mono" font-size="8.5" fill="#FF9900" text-anchor="end">AWS</text>

  <!-- Azure -->
  <rect x="494" y="452" width="54" height="30" rx="5" fill="#161b22" stroke="#30363d" stroke-width="0.5"/>
  <text x="499" y="472" class="mono" font-size="8.5" fill="#0089D6">⬡ Azure</text>

  <!-- Git -->
  <rect x="556" y="452" width="46" height="30" rx="5" fill="#161b22" stroke="#30363d" stroke-width="0.5"/>
  <use href="#logo-git" x="561" y="457" width="16" height="16"/>
  <text x="598" y="471" class="mono" font-size="8.5" fill="#F05032" text-anchor="end">Git</text>

  <!-- ROW: Frontend -->
  <text x="40" y="504" class="mono" font-size="8.5" fill="#3d444d">FRONT</text>

  <!-- React -->
  <rect x="86" y="486" width="58" height="30" rx="5" fill="#161b22" stroke="#30363d" stroke-width="0.5"/>
  <use href="#logo-react" x="92" y="491" width="16" height="16"/>
  <text x="140" y="505" class="mono" font-size="8.5" fill="#61DAFB" text-anchor="end">React</text>

  <!-- Flutter -->
  <rect x="152" y="486" width="60" height="30" rx="5" fill="#161b22" stroke="#30363d" stroke-width="0.5"/>
  <use href="#logo-flutter" x="157" y="491" width="16" height="16"/>
  <text x="208" y="505" class="mono" font-size="8.5" fill="#54C5F8" text-anchor="end">Flutter</text>

  <!-- HTML -->
  <rect x="220" y="486" width="52" height="30" rx="5" fill="#161b22" stroke="#30363d" stroke-width="0.5"/>
  <text x="225" y="506" class="mono" font-size="8.5" fill="#E44D26">HTML5</text>

  <!-- CSS -->
  <rect x="280" y="486" width="44" height="30" rx="5" fill="#161b22" stroke="#30363d" stroke-width="0.5"/>
  <text x="285" y="506" class="mono" font-size="8.5" fill="#264DE4">CSS3</text>

  <!-- Figma -->
  <rect x="332" y="486" width="54" height="30" rx="5" fill="#161b22" stroke="#30363d" stroke-width="0.5"/>
  <text x="337" y="506" class="mono" font-size="8.5" fill="#F24E1E">◈ Figma</text>

  <line x1="40" y1="538" x2="640" y2="538" stroke="#21262d" stroke-width="0.5"/>

  <!-- QUOTE -->
  <rect x="40" y="554" width="600" height="52" rx="8" fill="#0d1117" stroke="#30363d" stroke-width="0.5"/>
  <rect x="40" y="554" width="3" height="52" rx="1.5" fill="#388bfd"/>
  <text x="58" y="574" font-size="14" font-weight="700" fill="#e6edf3">Started writing code before knowing what "backend" meant.</text>
  <text x="58" y="598" font-size="14" font-weight="700" fill="#e6edf3">Now I build systems that make unstructured data useful.</text>

<line x1="40" y1="660" x2="640" y2="660" stroke="#21262d" stroke-width="0.5"/>
<text x="340" y="685" font-size="11" fill="#3d444d" text-anchor="middle" font-style="italic">from raw data to real intelligence — explore the repos ↓</text>
</svg>
